# xmcd
#
# Track frame offsets: 
#        183
#        13883
#        27233
#        41745
#        57383
#        75433
#        90108
#        106108
#        118745
#        133195
#        166895
#        179220
#        192908
#        208658
#        218995
#        232820
#        246008
#        260683
#        273095
#        285970
#
# Disc length: 4124 seconds
#
# Revision: 8
# Processed by: cddbd v1.5.2PL0 Copyright (c) Steve Scherf et al.
# Submitted via: ExactAudioCopyFreeDBPlugin 1.0
#
DISCID=15101a14
DTITLE=Various Artist - The Ultimate Encyclopedia Of American Blues Classics [CD2)
DYEAR=1997
DGENRE=Blues, Jazz
TTITLE0=Memphis Minnie - Where Is My Good Man At?
TTITLE1=Charlie Patton - 34 Blues
TTITLE2=Ma Rainey - Sleep Talkin' Blues
TTITLE3=Tampa Red - Sugar Mama Blues
TTITLE4=Otis Rush - May Be The Last Time
TTITLE5=Bessie Smith - The Gin House Blues
TTITLE6=Otis Spann - I Just Want A Little Bit
TTITLE7=Victoria Spivey - Black Gal
TTITLE8=Sonny Terry - Mountain Blues
TTITLE9=Big Mama Thornton - Ball And Chain
TTITLE10=Sophie Tucker - Red Hot Mama
TTITLE11=T. Bone Walker - Doin' Time
TTITLE12=Little Walter - Blue Mood
TTITLE13=Ethel Waters - St. Louis Blues
TTITLE14=Muddy Waters - Hoochie Coochie Man
TTITLE15=Bukka White - Special Stream Line
TTITLE16=Josh White - Black And Evil Blues
TTITLE17=Sonny Boy Williamson - Cool Cool Blues
TTITLE18=Jimmy Witherspoon - Skidrow Blues
TTITLE19=Howlin' Wolf - Evil
EXTD=
EXTT0=Memphis Minnie
EXTT1=Charlie Patton
EXTT2=Ma Rainey
EXTT3=Tampa Red
EXTT4=Otis Rush
EXTT5=Bessie Smith
EXTT6=Otis Span
EXTT7=Victoria Spivey
EXTT8=Sonny Terry
EXTT9=Big Momma Thornton
EXTT10=Sophie Tucker
EXTT11=T. Bone Walker
EXTT12=Little Walter
EXTT13=Ethel Walters
EXTT14=Muddy Waters
EXTT15=Bukka White
EXTT16=Josh White
EXTT17=Sonny Boy Williamson
EXTT18=Jimmy Witherspoon
EXTT19=Howlin' Wolf
PLAYORDER=
